<?xml version="1.0" encoding="UTF-8" standalone="no"?>
<!-- SPDX CC-BY-SA-3.0 -->
<!-- Created with Inkscape (http://www.inkscape.org/) -->

<svg version="1.0"
     width="246.4668"
     height="399.90833"
     id="atl-logo"
     xml:space="preserve"
     xmlns="http://www.w3.org/2000/svg"
     xmlns:svg="http://www.w3.org/2000/svg"
     xmlns:rdf="http://www.w3.org/1999/02/22-rdf-syntax-ns#"
     xmlns:cc="http://creativecommons.org/ns#"
     xmlns:dc="http://purl.org/dc/elements/1.1/">
	<defs id="defs" />
	<g id="group"
	   transform="matrix(-1,0,0,1,448.94696,-8.2620547)">
		<path id="outline"
		      d="m 341.25,12.8125 c -11.02203,-0.02539 -19.49745,1.777051 -23,5.65625 -5.55688,6.154435 -18.3467,52.050021 -34.3125,122.1875 -11.51895,50.47049 -3.52716,79.90391 4.34375,95.65625 10.06277,20.13898 17.90523,32.24808 2,72.4375 -11.51919,29.10677 -23.27205,34.67754 -34.1875,36.0625 -26.30578,-6.32575 -46.15728,-6.55239 -48.75,0.5625 -3.54667,9.73271 26.46865,29.46061 67,44.0625 40.53134,14.60188 76.32833,18.57646 79.875,8.84375 2.6012,-7.13815 -12.89899,-19.66187 -37.3125,-31.59375 -10.71743,-11.04279 -20.33097,-18.73413 -11.84375,-52.9375 16.60347,-66.91167 41.93037,-43.9146 71.78125,-85.5 25.32136,-35.27531 32.02618,-62.3403 46.6875,-103.6875 C 439.06536,80.753941 445.88577,60.473586 443.875,56.46875 430.3319,29.49505 374.31609,12.888669 341.25,12.8125 Z"
		      style="fill:none;stroke:#ffffff;stroke-width:9.1;stroke-linecap:round;stroke-linejoin:round;stroke-dasharray:none;stroke-opacity:1" />
		<path id="air"
		      style="opacity:1;fill:#ffffff;fill-opacity:1;stroke-width:1.05946;stroke-linejoin:round"
		      transform="scale(-1,1)"
		      d="m -321.28274,23.323944 41.32705,168.925896 -22.01853,72.02668 -50.38135,-16.79379 -30.60201,-32.84118 -57.49468,-152.879195 25.82028,-25.526855 46.59784,-16.289595 z" />
		<path id="liquid"
		      style="opacity:1;fill:#00de7a;fill-opacity:1;stroke-width:1.05946;stroke-linejoin:round"
		      transform="scale(-1,1)"
		      d="m -316.25116,159.04837 c -1.82254,0 -3.30001,1.47746 -3.30001,3.3 0,1.82255 1.47746,3.30001 3.30001,3.30001 1.82255,0 3.30001,-1.47746 3.30001,-3.30001 0,-1.82254 -1.47747,-3.3 -3.30001,-3.3 z m -9.31363,41.34796 c -1.82254,0 -3.30001,1.47746 -3.30001,3.3 0,1.82255 1.47746,3.30001 3.30001,3.30001 1.82255,0 3.30001,-1.47746 3.30001,-3.30001 0,-1.82254 -1.47747,-3.3 -3.30001,-3.3 z m -33.39371,-11.96504 c -1.82254,0 -3.3,1.47746 -3.3,3.3 0,1.82254 1.47746,3.30001 3.3,3.30001 1.82255,0 3.30001,-1.47746 3.30001,-3.30001 0,-1.82254 -1.47747,-3.3 -3.30001,-3.3 z m 54.75541,-62.86458 c -1.82254,0 -3.30001,1.47746 -3.30001,3.3 0,1.82255 1.47746,3.30001 3.30001,3.30001 1.82254,0 3.3,-1.47747 3.3,-3.30001 0,-1.82254 -1.47746,-3.3 -3.3,-3.3 z m -94.86771,5.38081 c -1.82255,0 -3.30001,1.47746 -3.30001,3.30001 0,1.82255 1.47746,3.30001 3.30001,3.30001 1.82255,0 3.30001,-1.47746 3.30001,-3.30001 0,-1.82255 -1.47746,-3.30001 -3.30001,-3.30001 z m 100.45534,-37.221231 18.65977,98.523551 -22.01853,72.02668 -50.38135,-16.79379 -30.60201,-32.84118 -40.30509,-100.76272 11.94225,-11.56905 67.54834,22.01852 z" />
		<path id="glass"
		      d="m 341.25,12.8125 c -11.02203,-0.02539 -19.49745,1.777051 -23,5.65625 -5.55688,6.154435 -18.3467,52.050021 -34.3125,122.1875 -11.51895,50.47049 -3.52716,79.90391 4.34375,95.65625 10.06277,20.13898 17.90523,32.24808 2,72.4375 -11.51919,29.10677 -23.27205,34.67754 -34.1875,36.0625 -26.30578,-6.32575 -46.15728,-6.55239 -48.75,0.5625 -3.54667,9.73271 26.46865,29.46061 67,44.0625 40.53134,14.60188 76.32833,18.57646 79.875,8.84375 2.6012,-7.13815 -12.89899,-19.66187 -37.3125,-31.59375 -10.71743,-11.04279 -20.33097,-18.73413 -11.84375,-52.9375 16.60347,-66.91167 41.93037,-43.9146 71.78125,-85.5 25.32136,-35.27531 32.02618,-62.3403 46.6875,-103.6875 C 439.06536,80.753941 445.88577,60.473586 443.875,56.46875 430.3319,29.49505 374.31609,12.888669 341.25,12.8125 Z M 343.53125,22 c 12.31878,0.108004 27.97868,2.796486 40.6875,7.34375 27.23671,9.745396 51.81736,23.366255 50.375,31.53125 -3.64538,20.635847 -11.60132,37.492501 -13.625,43.3125 -26.63519,-25.761649 -60.83865,51.11942 -115.6875,-12.5 0,10e-7 10.48814,-40.415171 17.71875,-63.46875 1.38151,-4.404692 9.66174,-6.314048 20.53125,-6.21875 z m -40.125,79.9375 c 55.49114,60.7197 94.23203,-15.160361 114.5625,11.1875 C 411.00639,135.99208 369.04606,274.44997 313.125,249.71875 266.80109,229.52626 293.62779,126.57117 303.40625,101.9375 Z"
		      style="fill:#000000;stroke:#000000;stroke-opacity:1" />
		<path id="line1"
		      style="opacity:1;fill:none;stroke:#00806b;stroke-width:6.67087;stroke-linecap:round;stroke-linejoin:miter;stroke-dasharray:none;stroke-opacity:1"
		      d="m 378.67009,170.82582 -7.6541,-35.39632" />
		<path id="line2"
		      style="opacity:1;fill:none;stroke:#00806b;stroke-width:6.67087;stroke-linecap:round;stroke-linejoin:miter;stroke-dasharray:none;stroke-opacity:1"
		      d="M 325.24862,135.00209 342.63739,94.973692" />
	</g>
	<metadata id="metadata">
		<rdf:RDF>
			<cc:Work rdf:about="">
				<dc:creator>
					<cc:Agent>
						<dc:title>travmurav</dc:title>
					</cc:Agent>
				</dc:creator>
				<dc:contributor>
					<cc:Agent>
						<dc:title>partly raster version by travmurav retraced as pure SVG by Mis012</dc:title>
					</cc:Agent>
				</dc:contributor>
				<dc:contributor>
					<cc:Agent>
						<dc:title>glass taken from https://en.wikipedia.org/wiki/File:WINE-Logo.svg</dc:title>
					</cc:Agent>
				</dc:contributor>
				<cc:license rdf:resource="http://creativecommons.org/licenses/by-sa/3.0/" />
			</cc:Work>
		</rdf:RDF>
	</metadata>
</svg>
